<svg xmlns="http://www.w3.org/2000/svg" xmlns:xlink="http://www.w3.org/1999/xlink" version="1.1" viewBox="0 0 2480 1748" style="background: #ffffff"><g id="v-3"  transform="matrix(1,0,0,1,0,0)"><g id="j_11"    transform="translate(20,1703)"><g id="v-194"><text  id="v-195" font-size="22px" y="0.8em" xml:space="preserve" font-weight="normal" text-anchor="start" fill="#aaaaaa" pointer-events="none" font-family="Open Sans" transform="matrix(1,0,0,1,0,0)"><tspan id="v-196"  dy="0em" x="0">Monday, 31 January 2022, 08:53 Greenwich Mean Time</tspan></text></g></g><g id="j_10"    transform="translate(20,1657)"><g id="v-190"><text  id="v-191" font-size="36px" y="0.8em" xml:space="preserve" font-weight="normal" text-anchor="start" fill="#000000" pointer-events="none" font-family="Open Sans" transform="matrix(1,0,0,1,0,0)"><tspan id="v-192"  dy="0em" x="0">[System Context] Internet Banking System</tspan></text></g></g><g id="j_3"    transform="translate(587,694)" style=""><g id="v-44"><rect  id="v-45" width="1305" height="958" rx="0" ry="0" fill="#ffffff" stroke="#444444" stroke-width="2" stroke-dasharray="20,20" pointer-events="none"></rect><text  id="v-46" font-size="24px" y="919" xml:space="preserve" font-weight="normal" fill="#444444" x="10" text-anchor="start" pointer-events="visible" font-family="Open Sans" transform="matrix(1,0,0,1,15,0)"><tspan id="v-48"  dy="0em" x="0">Big Bank plc</tspan></text><text  id="v-47" font-size="19px" y="943" xml:space="preserve" font-weight="normal" fill="#444444" x="10" text-anchor="start" pointer-events="visible" font-family="Open Sans" transform="matrix(1,0,0,1,15,0)"><tspan id="v-49"  dy="0em" x="0">[Enterprise]</tspan></text></g></g><g id="j_1"    transform="translate(632,69)" style=""><g  id="v-10" style="opacity: 1;"><rect  x="0" y="160" width="400" height="240" rx="70" id="v-12" stroke="#073b6f" stroke-width="2" pointer-events="visiblePainted" fill="#08427b"></rect><circle  cx="200" cy="88.88888888888889" r="88.88888888888889" id="v-11" stroke="#073b6f" stroke-width="2" pointer-events="visiblePainted" fill="#08427b"></circle><line  x1="80" y1="266.6666666666667" x2="80" y2="400" style="stroke-width:2px" id="v-18" stroke="#073b6f"></line><line  x1="320" y1="266.6666666666667" x2="320" y2="400" style="stroke-width:2px" id="v-19" stroke="#073b6f"></line><text  id="v-13" font-size="32px" y="0.8em" xml:space="preserve" font-weight="bold" text-anchor="middle" pointer-events="visible" font-family="Open Sans" fill="#ffffff" transform="matrix(1,0,0,1,200,191.3)"><tspan id="v-20"  dy="0em" x="0">Personal Banking</tspan><tspan id="v-21"  dy="1.2em" x="0">Customer</tspan></text><text  id="v-14" font-size="17px" y="0.8em" xml:space="preserve" text-anchor="middle" font-family="Open Sans" fill="#ffffff" transform="matrix(1,0,0,1,200,271.3)"><tspan id="v-22"  dy="0em" x="0">[Person]</tspan></text><text  id="v-15" font-size="22px" y="0.8em" xml:space="preserve" text-anchor="middle" font-family="Open Sans" fill="#ffffff" transform="matrix(1,0,0,1,200,313.8)"><tspan id="v-23"  dy="0em" x="0">A customer of the bank, with</tspan><tspan id="v-24"  dy="1.2em" x="0">personal bank accounts.</tspan></text><text  id="v-16" font-weight="bold" text-anchor="middle" font-family="Open Sans" fill="#ffffff" font-size="22" transform="matrix(1,0,0,1,200,371.2)" display="none"></text><image  id="v-17"></image></g></g><g id="j_2"    transform="translate(607,1259)" style="" ><g  id="v-30" style="opacity: 1;"><rect  id="v-31" rx="1" ry="1" stroke="#8a8a8a" stroke-width="2" pointer-events="visiblePainted" fill="#999999" width="450" height="300"></rect><text  id="v-32" font-size="34" y="0.8em" xml:space="preserve" font-weight="bold" text-anchor="middle" pointer-events="visible" font-family="Open Sans" fill="#ffffff" transform="matrix(1,0,0,1,225,38.8)"><tspan id="v-37"  dy="0em" x="0">Mainframe Banking</tspan><tspan id="v-38"  dy="1.2em" x="0">System</tspan></text><text  id="v-33" font-size="19" y="0.8em" xml:space="preserve" text-anchor="middle" font-family="Open Sans" fill="#ffffff" transform="matrix(1,0,0,1,225,123.8)"><tspan id="v-39"  dy="0em" x="0">[Software System]</tspan></text><text  id="v-34" font-size="24" y="0.8em" xml:space="preserve" text-anchor="middle" font-family="Open Sans" fill="#ffffff" transform="matrix(1,0,0,1,225,171.3)"><tspan id="v-40"  dy="0em" x="0">Stores all of the core banking</tspan><tspan id="v-41"  dy="1.2em" x="0">information about customers,</tspan><tspan id="v-42"  dy="1.2em" x="0">accounts, transactions, etc.</tspan></text><text  id="v-35" font-weight="bold" text-anchor="middle" font-family="Open Sans" fill="#ffffff" font-size="24" transform="matrix(1,0,0,1,225,270)" y="0.8em" display="none" xml:space="preserve"><tspan id="v-50"  dy="0em" x="0" style="fill-opacity: 0; stroke-opacity: 0;">-</tspan></text><image  id="v-36"></image></g></g><g id="j_4"    transform="translate(1422,714)" style="" ><g  id="v-54" style="opacity: 1;"><rect  id="v-55" rx="1" ry="1" stroke="#8a8a8a" stroke-width="2" pointer-events="visiblePainted" fill="#999999" width="450" height="300"></rect><text  id="v-56" font-size="34" y="0.8em" xml:space="preserve" font-weight="bold" text-anchor="middle" pointer-events="visible" font-family="Open Sans" fill="#ffffff" transform="matrix(1,0,0,1,225,75)"><tspan id="v-61"  dy="0em" x="0">E-mail System</tspan></text><text  id="v-57" font-size="19" y="0.8em" xml:space="preserve" text-anchor="middle" font-family="Open Sans" fill="#ffffff" transform="matrix(1,0,0,1,225,117.5)"><tspan id="v-62"  dy="0em" x="0">[Software System]</tspan></text><text  id="v-58" font-size="24" y="0.8em" xml:space="preserve" text-anchor="middle" font-family="Open Sans" fill="#ffffff" transform="matrix(1,0,0,1,225,165)"><tspan id="v-63"  dy="0em" x="0">The internal Microsoft Exchange</tspan><tspan id="v-64"  dy="1.2em" x="0">e-mail system.</tspan></text><text  id="v-59" font-weight="bold" text-anchor="middle" font-family="Open Sans" fill="#ffffff" font-size="24" transform="matrix(1,0,0,1,225,270)" y="0.8em" display="none" xml:space="preserve"><tspan id="v-65"  dy="0em" x="0" style="fill-opacity: 0; stroke-opacity: 0;">-</tspan></text><image  id="v-60"></image></g></g><g id="j_5"    transform="translate(607,714)" style="" ><g  id="v-71" style="opacity: 1;"><rect  id="v-72" rx="1" ry="1" stroke="#0f5eaa" stroke-width="2" pointer-events="visiblePainted" fill="#1168bd" width="450" height="300"></rect><text  id="v-73" font-size="34" y="0.8em" xml:space="preserve" font-weight="bold" text-anchor="middle" pointer-events="visible" font-family="Open Sans" fill="#ffffff" transform="matrix(1,0,0,1,225,60)"><tspan id="v-78"  dy="0em" x="0">Internet Banking System</tspan></text><text  id="v-74" font-size="19" y="0.8em" xml:space="preserve" text-anchor="middle" font-family="Open Sans" fill="#ffffff" transform="matrix(1,0,0,1,225,102.5)"><tspan id="v-79"  dy="0em" x="0">[Software System]</tspan></text><text  id="v-75" font-size="24" y="0.8em" xml:space="preserve" text-anchor="middle" font-family="Open Sans" fill="#ffffff" transform="matrix(1,0,0,1,225,150)"><tspan id="v-80"  dy="0em" x="0">Allows customers to view</tspan><tspan id="v-81"  dy="1.2em" x="0">information about their bank</tspan><tspan id="v-82"  dy="1.2em" x="0">accounts, and make payments.</tspan></text><text  id="v-76" font-weight="bold" text-anchor="middle" font-family="Open Sans" fill="#ffffff" font-size="24" transform="matrix(1,0,0,1,225,270)" y="0.8em" xml:space="preserve" display="none"><tspan id="v-83"  dy="0em" x="0">+</tspan></text><image  id="v-77"></image></g></g><g id="j_6"   ><path  stroke="#707070" id="v-103" stroke-width="2" stroke-dasharray="30 30" fill="none" d="M 1442 714 1048 427" style="opacity: 1;"></path><path  fill="black" stroke="black" transform="translate(1442,714) scale(1,1) rotate(-143.89791870117188)"></path><path  fill="#707070" stroke="#707070" id="v-105" d="M 20 0 L 0 10 L 20 20 z" transform="translate(1037.8922841851884,406.9203005504649) scale(1,1) rotate(36.10208129882815)" style="opacity: 1;"></path><path  id="v-104" fill="none" d="M 1442 714 1048 427" style=""></path><title ></title><g ><g  id="v-91" label-idx="0" cursor="move" transform="translate(1245, 570.5)" style="opacity: 1;"><rect id="v-93" fill="#ffffff" rx="3" ry="3" stroke="#ffffff" stroke-width="20px" pointer-events="none" width="183.24391174316406" height="32.184120178222656" transform="matrix(1,0,0,1,-91.6,-16)"></rect><text id="v-92" font-size="24px" y="0.8em" xml:space="preserve" text-anchor="middle" pointer-events="none" fill="#707070" font-family="Open Sans" font-weight="normal" transform="matrix(1,0,0,1,0,-9.5)"><tspan id="v-94"  dy="0em" x="0">Sends e-mails to</tspan></text></g><g  id="v-95" label-idx="1" cursor="move" transform="translate(1245, 601.7)" style="opacity: 1;"><rect id="v-97" fill="#ffffff" rx="3" ry="3" pointer-events="none" width="0" height="0" transform="matrix(1,0,0,1,0,0)"></rect><text id="v-96" font-size="19px" y="0.8em" display="none" xml:space="preserve" text-anchor="middle" pointer-events="none" fill="#707070" font-family="Open Sans" font-weight="normal" transform="matrix(1,0,0,1,0,0)"><tspan id="v-98"  dy="0em" x="0" style="fill-opacity: 0; stroke-opacity: 0;">-</tspan></text></g><g  id="v-99" label-idx="2" cursor="move" transform="translate(1245, 625.7)" style="opacity: 1;"><rect id="v-101" fill="#ffffff" rx="3" ry="3" pointer-events="none"  display="none" width="0" height="0" transform="matrix(1,0,0,1,0,0)"></rect><text id="v-100" font-size="19px" y="0.8em" display="none" xml:space="preserve" text-anchor="middle" pointer-events="none" fill="#707070" font-family="Open Sans" font-weight="normal"  transform="matrix(1,0,0,1,0,0)"><tspan id="v-102"  dy="0em" x="0" style="fill-opacity: 0; stroke-opacity: 0;">-</tspan></text></g></g><g  display="none"></g><g  id="v-107" display="none"><g  id="v-88"><path  end="source" d="M 26 0 L 0 13 L 26 26 z"></path></g><g  id="v-89"><path  end="target" d="M 26 0 L 0 13 L 26 26 z"></path></g></g><g  id="v-106" display="none"><g  id="v-87" transform="translate(1409.6683349609375, 690.44873046875) "><g  event="remove"><circle r="11"></circle><path transform="scale(.8) translate(-16, -16)" d="M24.778,21.419 19.276,15.917 24.777,10.415 21.949,7.585 16.447,13.087 10.945,7.585 8.117,10.415 13.618,15.917 8.116,21.419 10.946,24.248 16.447,18.746 21.948,24.248z"></path><title>Remove link.</title></g><g  event="link:options"><circle r="11" transform="translate(25)"></circle><path fill="white" transform="scale(.55) translate(29, -16)" d="M31.229,17.736c0.064-0.571,0.104-1.148,0.104-1.736s-0.04-1.166-0.104-1.737l-4.377-1.557c-0.218-0.716-0.504-1.401-0.851-2.05l1.993-4.192c-0.725-0.91-1.549-1.734-2.458-2.459l-4.193,1.994c-0.647-0.347-1.334-0.632-2.049-0.849l-1.558-4.378C17.165,0.708,16.588,0.667,16,0.667s-1.166,0.041-1.737,0.105L12.707,5.15c-0.716,0.217-1.401,0.502-2.05,0.849L6.464,4.005C5.554,4.73,4.73,5.554,4.005,6.464l1.994,4.192c-0.347,0.648-0.632,1.334-0.849,2.05l-4.378,1.557C0.708,14.834,0.667,15.412,0.667,16s0.041,1.165,0.105,1.736l4.378,1.558c0.217,0.715,0.502,1.401,0.849,2.049l-1.994,4.193c0.725,0.909,1.549,1.733,2.459,2.458l4.192-1.993c0.648,0.347,1.334,0.633,2.05,0.851l1.557,4.377c0.571,0.064,1.148,0.104,1.737,0.104c0.588,0,1.165-0.04,1.736-0.104l1.558-4.377c0.715-0.218,1.399-0.504,2.049-0.851l4.193,1.993c0.909-0.725,1.733-1.549,2.458-2.458l-1.993-4.193c0.347-0.647,0.633-1.334,0.851-2.049L31.229,17.736zM16,20.871c-2.69,0-4.872-2.182-4.872-4.871c0-2.69,2.182-4.872,4.872-4.872c2.689,0,4.871,2.182,4.871,4.872C20.871,18.689,18.689,20.871,16,20.871z"></path><title>Link options.</title></g></g></g></g><g id="j_7"   ><path  stroke="#707070" id="v-130" stroke-width="2" stroke-dasharray="30 30" fill="none" d="M 832 469 832 694" style="opacity: 1;"></path><path  fill="black" stroke="black" transform="translate(832,469) scale(1,1) rotate(-270)"></path><path  fill="#707070" stroke="#707070" id="v-132" d="M 20 0 L 0 10 L 20 20 z" transform="translate(822,714) scale(1,1) rotate(-90)" style="opacity: 1;"></path><path  id="v-131" fill="none" d="M 832 469 832 694" style=""></path><title ></title><g ><g  id="v-115" label-idx="0" cursor="move" transform="translate(832, 581.5)" style="opacity: 1;"><rect id="v-117" fill="#ffffff" rx="3" ry="3" stroke="#ffffff" stroke-width="20px" pointer-events="none" width="189.71029663085938" height="118.58412170410156" transform="matrix(1,0,0,1,-94.9,-59.2)"></rect><text id="v-116" font-size="24px" y="0.8em" xml:space="preserve" text-anchor="middle" pointer-events="none" fill="#707070" font-family="Open Sans" font-weight="normal" transform="matrix(1,0,0,1,0,-52.7)"><tspan id="v-118"  dy="0em" x="0">Views account</tspan><tspan id="v-119"  dy="1.2em" x="0">balances, and</tspan><tspan id="v-120"  dy="1.2em" x="0">makes payments</tspan><tspan id="v-121"  dy="1.2em" x="0">using</tspan></text></g><g  id="v-122" label-idx="1" cursor="move" transform="translate(832, 651.1)" style="opacity: 1;"><rect id="v-124" fill="#ffffff" rx="3" ry="3" pointer-events="none" width="0" height="0" transform="matrix(1,0,0,1,0,0)"></rect><text id="v-123" font-size="19px" y="0.8em" display="none" xml:space="preserve" text-anchor="middle" pointer-events="none" fill="#707070" font-family="Open Sans" font-weight="normal" transform="matrix(1,0,0,1,0,0)"><tspan id="v-125"  dy="0em" x="0" style="fill-opacity: 0; stroke-opacity: 0;">-</tspan></text></g><g  id="v-126" label-idx="2" cursor="move" transform="translate(832, 675.1)" style="opacity: 1;"><rect id="v-128" fill="#ffffff" rx="3" ry="3" pointer-events="none"  display="none" width="0" height="0" transform="matrix(1,0,0,1,0,0)"></rect><text id="v-127" font-size="19px" y="0.8em" display="none" xml:space="preserve" text-anchor="middle" pointer-events="none" fill="#707070" font-family="Open Sans" font-weight="normal"  transform="matrix(1,0,0,1,0,0)"><tspan id="v-129"  dy="0em" x="0" style="fill-opacity: 0; stroke-opacity: 0;">-</tspan></text></g></g><g  display="none"></g><g  id="v-134" display="none"><g  id="v-112"><path  end="source" d="M 26 0 L 0 13 L 26 26 z"></path></g><g  id="v-113"><path  end="target" d="M 26 0 L 0 13 L 26 26 z"></path></g></g><g  id="v-133" display="none"><g  id="v-111" transform="translate(832, 509) "><g  event="remove"><circle r="11"></circle><path transform="scale(.8) translate(-16, -16)" d="M24.778,21.419 19.276,15.917 24.777,10.415 21.949,7.585 16.447,13.087 10.945,7.585 8.117,10.415 13.618,15.917 8.116,21.419 10.946,24.248 16.447,18.746 21.948,24.248z"></path><title>Remove link.</title></g><g  event="link:options"><circle r="11" transform="translate(25)"></circle><path fill="white" transform="scale(.55) translate(29, -16)" d="M31.229,17.736c0.064-0.571,0.104-1.148,0.104-1.736s-0.04-1.166-0.104-1.737l-4.377-1.557c-0.218-0.716-0.504-1.401-0.851-2.05l1.993-4.192c-0.725-0.91-1.549-1.734-2.458-2.459l-4.193,1.994c-0.647-0.347-1.334-0.632-2.049-0.849l-1.558-4.378C17.165,0.708,16.588,0.667,16,0.667s-1.166,0.041-1.737,0.105L12.707,5.15c-0.716,0.217-1.401,0.502-2.05,0.849L6.464,4.005C5.554,4.73,4.73,5.554,4.005,6.464l1.994,4.192c-0.347,0.648-0.632,1.334-0.849,2.05l-4.378,1.557C0.708,14.834,0.667,15.412,0.667,16s0.041,1.165,0.105,1.736l4.378,1.558c0.217,0.715,0.502,1.401,0.849,2.049l-1.994,4.193c0.725,0.909,1.549,1.733,2.459,2.458l4.192-1.993c0.648,0.347,1.334,0.633,2.05,0.851l1.557,4.377c0.571,0.064,1.148,0.104,1.737,0.104c0.588,0,1.165-0.04,1.736-0.104l1.558-4.377c0.715-0.218,1.399-0.504,2.049-0.851l4.193,1.993c0.909-0.725,1.733-1.549,2.458-2.458l-1.993-4.193c0.347-0.647,0.633-1.334,0.851-2.049L31.229,17.736zM16,20.871c-2.69,0-4.872-2.182-4.872-4.871c0-2.69,2.182-4.872,4.872-4.872c2.689,0,4.871,2.182,4.871,4.872C20.871,18.689,18.689,20.871,16,20.871z"></path><title>Link options.</title></g></g></g></g><g id="j_8"   ><path  stroke="#707070" id="v-155" stroke-width="2" stroke-dasharray="30 30" fill="none" d="M 1057 864 1402 864" style="opacity: 1;"></path><path  fill="black" stroke="black" transform="translate(1057,864) scale(1,1) rotate(0)"></path><path  fill="#707070" stroke="#707070" id="v-157" d="M 20 0 L 0 10 L 20 20 z" transform="translate(1422,874) scale(1,1) rotate(-180)" style="opacity: 1;"></path><path  id="v-156" fill="none" d="M 1057 864 1402 864" style=""></path><title ></title><g ><g  id="v-142" label-idx="0" cursor="move" transform="translate(1229.5, 864)" style="opacity: 1;"><rect id="v-144" fill="#ffffff" rx="3" ry="3" stroke="#ffffff" stroke-width="20px" pointer-events="none" width="142.5655975341797" height="60.98412322998047" transform="matrix(1,0,0,1,-71.3,-30.4)"></rect><text id="v-143" font-size="24px" y="0.8em" xml:space="preserve" text-anchor="middle" pointer-events="none" fill="#707070" font-family="Open Sans" font-weight="normal" transform="matrix(1,0,0,1,0,-23.9)"><tspan id="v-145"  dy="0em" x="0">Sends e-mail</tspan><tspan id="v-146"  dy="1.2em" x="0">using</tspan></text></g><g  id="v-147" label-idx="1" cursor="move" transform="translate(1229.5, 907.2)" style="opacity: 1;"><rect id="v-149" fill="#ffffff" rx="3" ry="3" pointer-events="none" width="0" height="0" transform="matrix(1,0,0,1,0,0)"></rect><text id="v-148" font-size="19px" y="0.8em" display="none" xml:space="preserve" text-anchor="middle" pointer-events="none" fill="#707070" font-family="Open Sans" font-weight="normal" transform="matrix(1,0,0,1,0,0)"><tspan id="v-150"  dy="0em" x="0" style="fill-opacity: 0; stroke-opacity: 0;">-</tspan></text></g><g  id="v-151" label-idx="2" cursor="move" transform="translate(1229.5, 931.2)" style="opacity: 1;"><rect id="v-153" fill="#ffffff" rx="3" ry="3" pointer-events="none"  display="none" width="0" height="0" transform="matrix(1,0,0,1,0,0)"></rect><text id="v-152" font-size="19px" y="0.8em" display="none" xml:space="preserve" text-anchor="middle" pointer-events="none" fill="#707070" font-family="Open Sans" font-weight="normal"  transform="matrix(1,0,0,1,0,0)"><tspan id="v-154"  dy="0em" x="0" style="fill-opacity: 0; stroke-opacity: 0;">-</tspan></text></g></g><g  display="none"></g><g  id="v-159" display="none"><g  id="v-139"><path  end="source" d="M 26 0 L 0 13 L 26 26 z"></path></g><g  id="v-140"><path  end="target" d="M 26 0 L 0 13 L 26 26 z"></path></g></g><g  id="v-158" display="none"><g  id="v-138" transform="translate(1097, 864) "><g  event="remove"><circle r="11"></circle><path transform="scale(.8) translate(-16, -16)" d="M24.778,21.419 19.276,15.917 24.777,10.415 21.949,7.585 16.447,13.087 10.945,7.585 8.117,10.415 13.618,15.917 8.116,21.419 10.946,24.248 16.447,18.746 21.948,24.248z"></path><title>Remove link.</title></g><g  event="link:options"><circle r="11" transform="translate(25)"></circle><path fill="white" transform="scale(.55) translate(29, -16)" d="M31.229,17.736c0.064-0.571,0.104-1.148,0.104-1.736s-0.04-1.166-0.104-1.737l-4.377-1.557c-0.218-0.716-0.504-1.401-0.851-2.05l1.993-4.192c-0.725-0.91-1.549-1.734-2.458-2.459l-4.193,1.994c-0.647-0.347-1.334-0.632-2.049-0.849l-1.558-4.378C17.165,0.708,16.588,0.667,16,0.667s-1.166,0.041-1.737,0.105L12.707,5.15c-0.716,0.217-1.401,0.502-2.05,0.849L6.464,4.005C5.554,4.73,4.73,5.554,4.005,6.464l1.994,4.192c-0.347,0.648-0.632,1.334-0.849,2.05l-4.378,1.557C0.708,14.834,0.667,15.412,0.667,16s0.041,1.165,0.105,1.736l4.378,1.558c0.217,0.715,0.502,1.401,0.849,2.049l-1.994,4.193c0.725,0.909,1.549,1.733,2.459,2.458l4.192-1.993c0.648,0.347,1.334,0.633,2.05,0.851l1.557,4.377c0.571,0.064,1.148,0.104,1.737,0.104c0.588,0,1.165-0.04,1.736-0.104l1.558-4.377c0.715-0.218,1.399-0.504,2.049-0.851l4.193,1.993c0.909-0.725,1.733-1.549,2.458-2.458l-1.993-4.193c0.347-0.647,0.633-1.334,0.851-2.049L31.229,17.736zM16,20.871c-2.69,0-4.872-2.182-4.872-4.871c0-2.69,2.182-4.872,4.872-4.872c2.689,0,4.871,2.182,4.871,4.872C20.871,18.689,18.689,20.871,16,20.871z"></path><title>Link options.</title></g></g></g></g><g id="j_9"   ><path  stroke="#707070" id="v-182" stroke-width="2" stroke-dasharray="30 30" fill="none" d="M 832 1014 832 1239" style="opacity: 1;"></path><path  fill="black" stroke="black" transform="translate(832,1014) scale(1,1) rotate(-270)"></path><path  fill="#707070" stroke="#707070" id="v-184" d="M 20 0 L 0 10 L 20 20 z" transform="translate(822,1259) scale(1,1) rotate(-90)" style="opacity: 1;"></path><path  id="v-183" fill="none" d="M 832 1014 832 1239" style=""></path><title ></title><g ><g  id="v-167" label-idx="0" cursor="move" transform="translate(832, 1126.5)" style="opacity: 1;"><rect id="v-169" fill="#ffffff" rx="3" ry="3" stroke="#ffffff" stroke-width="20px" pointer-events="none" width="199.57765197753906" height="118.58412170410156" transform="matrix(1,0,0,1,-99.7,-59.2)"></rect><text id="v-168" font-size="24px" y="0.8em" xml:space="preserve" text-anchor="middle" pointer-events="none" fill="#707070" font-family="Open Sans" font-weight="normal" transform="matrix(1,0,0,1,0,-52.7)"><tspan id="v-170"  dy="0em" x="0">Gets account</tspan><tspan id="v-171"  dy="1.2em" x="0">information from,</tspan><tspan id="v-172"  dy="1.2em" x="0">and makes</tspan><tspan id="v-173"  dy="1.2em" x="0">payments using</tspan></text></g><g  id="v-174" label-idx="1" cursor="move" transform="translate(832, 1196.1)" style="opacity: 1;"><rect id="v-176" fill="#ffffff" rx="3" ry="3" pointer-events="none" width="0" height="0" transform="matrix(1,0,0,1,0,0)"></rect><text id="v-175" font-size="19px" y="0.8em" display="none" xml:space="preserve" text-anchor="middle" pointer-events="none" fill="#707070" font-family="Open Sans" font-weight="normal" transform="matrix(1,0,0,1,0,0)"><tspan id="v-177"  dy="0em" x="0" style="fill-opacity: 0; stroke-opacity: 0;">-</tspan></text></g><g  id="v-178" label-idx="2" cursor="move" transform="translate(832, 1220.1)" style="opacity: 1;"><rect id="v-180" fill="#ffffff" rx="3" ry="3" pointer-events="none"  display="none" width="0" height="0" transform="matrix(1,0,0,1,0,0)"></rect><text id="v-179" font-size="19px" y="0.8em" display="none" xml:space="preserve" text-anchor="middle" pointer-events="none" fill="#707070" font-family="Open Sans" font-weight="normal"  transform="matrix(1,0,0,1,0,0)"><tspan id="v-181"  dy="0em" x="0" style="fill-opacity: 0; stroke-opacity: 0;">-</tspan></text></g></g><g  display="none"></g><g  id="v-186" display="none"><g  id="v-164"><path  end="source" d="M 26 0 L 0 13 L 26 26 z"></path></g><g  id="v-165"><path  end="target" d="M 26 0 L 0 13 L 26 26 z"></path></g></g><g  id="v-185" display="none"><g  id="v-163" transform="translate(832, 1054) "><g  event="remove"><circle r="11"></circle><path transform="scale(.8) translate(-16, -16)" d="M24.778,21.419 19.276,15.917 24.777,10.415 21.949,7.585 16.447,13.087 10.945,7.585 8.117,10.415 13.618,15.917 8.116,21.419 10.946,24.248 16.447,18.746 21.948,24.248z"></path><title>Remove link.</title></g><g  event="link:options"><circle r="11" transform="translate(25)"></circle><path fill="white" transform="scale(.55) translate(29, -16)" d="M31.229,17.736c0.064-0.571,0.104-1.148,0.104-1.736s-0.04-1.166-0.104-1.737l-4.377-1.557c-0.218-0.716-0.504-1.401-0.851-2.05l1.993-4.192c-0.725-0.91-1.549-1.734-2.458-2.459l-4.193,1.994c-0.647-0.347-1.334-0.632-2.049-0.849l-1.558-4.378C17.165,0.708,16.588,0.667,16,0.667s-1.166,0.041-1.737,0.105L12.707,5.15c-0.716,0.217-1.401,0.502-2.05,0.849L6.464,4.005C5.554,4.73,4.73,5.554,4.005,6.464l1.994,4.192c-0.347,0.648-0.632,1.334-0.849,2.05l-4.378,1.557C0.708,14.834,0.667,15.412,0.667,16s0.041,1.165,0.105,1.736l4.378,1.558c0.217,0.715,0.502,1.401,0.849,2.049l-1.994,4.193c0.725,0.909,1.549,1.733,2.459,2.458l4.192-1.993c0.648,0.347,1.334,0.633,2.05,0.851l1.557,4.377c0.571,0.064,1.148,0.104,1.737,0.104c0.588,0,1.165-0.04,1.736-0.104l1.558-4.377c0.715-0.218,1.399-0.504,2.049-0.851l4.193,1.993c0.909-0.725,1.733-1.549,2.458-2.458l-1.993-4.193c0.347-0.647,0.633-1.334,0.851-2.049L31.229,17.736zM16,20.871c-2.69,0-4.872-2.182-4.872-4.871c0-2.69,2.182-4.872,4.872-4.872c2.689,0,4.871,2.182,4.871,4.872C20.871,18.689,18.689,20.871,16,20.871z"></path><title>Link options.</title></g></g></g></g></g><defs id="v-4"></defs></svg>