<svg xmlns="http://www.w3.org/2000/svg" xmlns:svg="http://www.w3.org/2000/svg" xmlns:xlink="http://www.w3.org/1999/xlink" version="1.0" height="899.9999999999984pt" width="818.1449999999996pt" viewBox="436.85500000000013 467.00000000000153 826.1449999999996 905.9999999999984" ><defs><style type="text/css">
            @font-face {
                font-family: 'noto_regular';
                src: url('https://app.creately.com/diagram/assets/fonts/noto/noto-regular.woff') format('woff'),
                     url('https://app.creately.com/diagram/assets/fonts/noto/noto-regular.woff2') format('woff2');
                font-weight: normal;
                font-style: normal;
            }
        p {
            margin: 0;
        }
        </style></defs><defs><style>
            span{ display: inline-block; }
        </style></defs><g id="LZtbSbKLxAn"><g transform="translate(579.9999999999998 470.00000000000153)"><rect x="0" y="0" width="680" height="899.9999999999985" fill="rgb(253,252,250)" stroke="#D8D8D8" stroke-width="2" stroke-linecap="round" stroke-linejoin="round"/></g><g transform="translate(829.8949999999998, 480.00000000000153) rotate(0, 90.105, 0)" width="180.21" height="18"><text text-decoration="none" x="9.105000000000004" fill="#545454" font-size="10pt" font-family="noto_regular"  y="15">Library&#160;</text><text text-decoration="none" x="50.105000000000004" fill="#545454" font-size="10pt" font-family="noto_regular"  y="15">Management&#160;</text><text text-decoration="none" x="128.10500000000002" fill="#545454" font-size="10pt" font-family="noto_regular"  y="15">System</text><text text-decoration="none" x="171.10500000000002" fill="#4b4b4b" font-size="10pt" font-family="noto_regular"  y="15"></text></g></g><g id="WBBm8lcZP5f"><g transform="translate(460 640)"><ellipse cx="20" cy="10" rx="10" ry="10" fill="rgb(255,255,255)" stroke="#FF3D3D" stroke-width="2" stroke-linecap="round" stroke-linejoin="round"/><path d="M 20,20 L 20,48 L 40,80 M 20,48 L 0,80 M 2,30 L 38,30" fill="none" stroke="#FF3D3D" stroke-width="2" stroke-linecap="round" stroke-linejoin="round"/><rect x="0" y="0" width="40" height="80" fill="rgba(255,255,255,0.01)" stroke="rgba(255,255,255,0.01)" stroke-width="2" stroke-linecap="round" stroke-linejoin="round"/></g><g transform="translate(453.34, 730) rotate(0, 26.66, 0)" width="53.32" height="18"><text text-decoration="none" x="3.16" fill="#545454" font-size="10pt" font-family="noto_regular"  y="15">Member</text><text text-decoration="none" x="50.16" fill="#4b4b4b" font-size="10pt" font-family="noto_regular"  y="15"></text></g></g><g id="FTLMf2J7Yrg"><g transform="translate(630 530)"><ellipse cx="60" cy="30" rx="60" ry="30" fill="rgb(36,175,175)" stroke="#24afaf" stroke-width="2" stroke-linecap="round" stroke-linejoin="round"/></g><g transform="translate(650.21, 541.995) rotate(0, 39.79, 18.005)" width="79.58" height="36.01"><text text-decoration="none" x="9.79" fill="#ffffff" font-size="10pt" font-family="noto_regular"  y="12">Inquiry&#160;</text><text text-decoration="none" x="50.79" fill="#ffffff" font-size="10pt" font-family="noto_regular"  y="12">for&#160;</text><text text-decoration="none" x="69.78999999999999" fill="#ffffff" font-size="10pt" font-family="noto_regular"  y="12"></text><text text-decoration="none" x="4.289999999999999" fill="#ffffff" font-size="10pt" font-family="noto_regular"  y="31">Membership</text><text text-decoration="none" x="75.28999999999999" fill="#4b4b4b" font-size="10pt" font-family="noto_regular"  y="31"></text></g></g><g id="zJFYgZf0811"><g transform="translate(640 610)"><ellipse cx="60" cy="30" rx="60" ry="30" fill="rgb(36,175,175)" stroke="#24afaf" stroke-width="2" stroke-linecap="round" stroke-linejoin="round"/></g><g transform="translate(646, 621.995) rotate(0, 54, 18.005)" width="108" height="36.01"><text text-decoration="none" x="5" fill="#ffffff" font-size="10pt" font-family="noto_regular"  y="12">Request&#160;</text><text text-decoration="none" x="55" fill="#ffffff" font-size="10pt" font-family="noto_regular"  y="12">for&#160;</text><text text-decoration="none" x="74" fill="#ffffff" font-size="10pt" font-family="noto_regular"  y="12">Book</text><text text-decoration="none" x="103" fill="#ffffff" font-size="10pt" font-family="noto_regular"  y="12"></text><text text-decoration="none" x="38" fill="#ffffff" font-size="10pt" font-family="noto_regular"  y="31">Issue</text><text text-decoration="none" x="70" fill="#4b4b4b" font-size="10pt" font-family="noto_regular"  y="31"></text></g></g><g id="pADnkViN97n"><g transform="translate(640 690)"><ellipse cx="60" cy="30" rx="60" ry="30" fill="rgb(36,175,175)" stroke="#24afaf" stroke-width="2" stroke-linecap="round" stroke-linejoin="round"/></g><g transform="translate(646, 701.995) rotate(0, 54, 18.005)" width="108" height="36.01"><text text-decoration="none" x="5" fill="#ffffff" font-size="10pt" font-family="noto_regular"  y="12">Request&#160;</text><text text-decoration="none" x="55" fill="#ffffff" font-size="10pt" font-family="noto_regular"  y="12">for&#160;</text><text text-decoration="none" x="74" fill="#ffffff" font-size="10pt" font-family="noto_regular"  y="12">Book</text><text text-decoration="none" x="103" fill="#ffffff" font-size="10pt" font-family="noto_regular"  y="12"></text><text text-decoration="none" x="35.5" fill="#ffffff" font-size="10pt" font-family="noto_regular"  y="31">Return</text><text text-decoration="none" x="72.5" fill="#4b4b4b" font-size="10pt" font-family="noto_regular"  y="31"></text></g></g><g id="KyRg3QKz3Lj"><g transform="translate(640 780)"><ellipse cx="60" cy="30" rx="60" ry="30" fill="rgb(36,175,175)" stroke="#24afaf" stroke-width="2" stroke-linecap="round" stroke-linejoin="round"/></g><g transform="translate(661.07, 801) rotate(0, 38.93, 9)" width="77.86" height="18"><text text-decoration="none" x="2.9299999999999997" fill="#ffffff" font-size="10pt" font-family="noto_regular"  y="15">Search&#160;</text><text text-decoration="none" x="45.93" fill="#ffffff" font-size="10pt" font-family="noto_regular"  y="15">Book</text><text text-decoration="none" x="74.93" fill="#4b4b4b" font-size="10pt" font-family="noto_regular"  y="15"></text></g></g><g id="m1msn93fzRb"><g transform="translate(900 680)"><ellipse cx="60" cy="30" rx="60" ry="30" fill="rgb(36,175,175)" stroke="#24afaf" stroke-width="2" stroke-linecap="round" stroke-linejoin="round"/></g><g transform="translate(934.03, 701) rotate(0, 25.97, 9)" width="51.94" height="18"><text text-decoration="none" x="1.9699999999999989" fill="#ffffff" font-size="10pt" font-family="noto_regular"  y="15">Pay&#160;</text><text text-decoration="none" x="25.97" fill="#ffffff" font-size="10pt" font-family="noto_regular"  y="15">Fine</text><text text-decoration="none" x="49.97" fill="#4b4b4b" font-size="10pt" font-family="noto_regular"  y="15"></text></g></g><g id="w03TftFaakq"><g transform="translate(450.0000000000001 1090)"><ellipse cx="20" cy="10" rx="10" ry="10" fill="rgb(255,255,255)" stroke="#FF3D3D" stroke-width="2" stroke-linecap="round" stroke-linejoin="round"/><path d="M 20,20 L 20,48 L 40,80 M 20,48 L 0,80 M 2,30 L 38,30" fill="none" stroke="#FF3D3D" stroke-width="2" stroke-linecap="round" stroke-linejoin="round"/><rect x="0" y="0" width="40" height="80" fill="rgba(255,255,255,0.01)" stroke="rgba(255,255,255,0.01)" stroke-width="2" stroke-linecap="round" stroke-linejoin="round"/></g><g transform="translate(441.85500000000013, 1180) rotate(0, 28.145, 0)" width="56.29" height="18"><text text-decoration="none" x="3.6449999999999996" fill="#545454" font-size="10pt" font-family="noto_regular"  y="15">Librarian</text><text text-decoration="none" x="52.644999999999996" fill="#4b4b4b" font-size="10pt" font-family="noto_regular"  y="15"></text></g></g><g id="oT31XZ43AOw"><g transform="translate(650 1030)"><ellipse cx="64.9999999999993" cy="30" rx="64.9999999999993" ry="30" fill="rgb(36,175,175)" stroke="#24afaf" stroke-width="2" stroke-linecap="round" stroke-linejoin="round"/></g><g transform="translate(656.9499999999994, 1041.995) rotate(0, 58.05, 18.005)" width="116.1" height="36.01"><text text-decoration="none" x="5.049999999999997" fill="#ffffff" font-size="10pt" font-family="noto_regular"  y="12">Issue&#160;</text><text text-decoration="none" x="40.05" fill="#ffffff" font-size="10pt" font-family="noto_regular"  y="12">Membership</text><text text-decoration="none" x="111.05" fill="#ffffff" font-size="10pt" font-family="noto_regular"  y="12"></text><text text-decoration="none" x="45.05" fill="#ffffff" font-size="10pt" font-family="noto_regular"  y="31">Card</text><text text-decoration="none" x="71.05" fill="#4b4b4b" font-size="10pt" font-family="noto_regular"  y="31"></text></g></g><g id="tFSFVhVNBad"><g transform="translate(650 1120)"><ellipse cx="60" cy="30" rx="60" ry="30" fill="rgb(36,175,175)" stroke="#24afaf" stroke-width="2" stroke-linecap="round" stroke-linejoin="round"/></g><g transform="translate(675.78, 1141) rotate(0, 34.22, 9)" width="68.44" height="18"><text text-decoration="none" x="2.219999999999999" fill="#ffffff" font-size="10pt" font-family="noto_regular"  y="15">Issue&#160;</text><text text-decoration="none" x="37.22" fill="#ffffff" font-size="10pt" font-family="noto_regular"  y="15">Book</text><text text-decoration="none" x="66.22" fill="#4b4b4b" font-size="10pt" font-family="noto_regular"  y="15"></text></g></g><g id="g9DfeQT39zC"><g transform="translate(650 1200)"><ellipse cx="60" cy="30" rx="60" ry="30" fill="rgb(36,175,175)" stroke="#24afaf" stroke-width="2" stroke-linecap="round" stroke-linejoin="round"/></g><g transform="translate(671, 1221) rotate(0, 39, 9)" width="78" height="18"><text text-decoration="none" x="4.5" fill="#ffffff" font-size="10pt" font-family="noto_regular"  y="15">Return&#160;</text><text text-decoration="none" x="44.5" fill="#ffffff" font-size="10pt" font-family="noto_regular"  y="15">Book</text><text text-decoration="none" x="73.5" fill="#4b4b4b" font-size="10pt" font-family="noto_regular"  y="15"></text></g></g><g id="5MTpAOraze0"><g transform="translate(640 1280)"><ellipse cx="60" cy="30" rx="60" ry="30" fill="rgb(36,175,175)" stroke="#24afaf" stroke-width="2" stroke-linecap="round" stroke-linejoin="round"/></g><g transform="translate(648.63, 1291.995) rotate(0, 51.37, 18.005)" width="102.74" height="36.01"><text text-decoration="none" x="6.369999999999997" fill="#ffffff" font-size="10pt" font-family="noto_regular"  y="12">Update&#160;</text><text text-decoration="none" x="49.37" fill="#ffffff" font-size="10pt" font-family="noto_regular"  y="12">Member</text><text text-decoration="none" x="96.37" fill="#ffffff" font-size="10pt" font-family="noto_regular"  y="12"></text><text text-decoration="none" x="31.369999999999997" fill="#ffffff" font-size="10pt" font-family="noto_regular"  y="31">Details</text><text text-decoration="none" x="71.37" fill="#4b4b4b" font-size="10pt" font-family="noto_regular"  y="31"></text></g></g><g id="WTkWlQ5hwTg"><g transform="translate(650 930)"><ellipse cx="60" cy="30" rx="60" ry="30" fill="rgb(36,175,175)" stroke="#24afaf" stroke-width="2" stroke-linecap="round" stroke-linejoin="round"/></g><g transform="translate(670.21, 941.995) rotate(0, 39.79, 18.005)" width="79.58" height="36.01"><text text-decoration="none" x="18.79" fill="#ffffff" font-size="10pt" font-family="noto_regular"  y="12">Cancel&#160;</text><text text-decoration="none" x="60.79" fill="#ffffff" font-size="10pt" font-family="noto_regular"  y="12"></text><text text-decoration="none" x="4.289999999999999" fill="#ffffff" font-size="10pt" font-family="noto_regular"  y="31">Membership</text><text text-decoration="none" x="75.28999999999999" fill="#4b4b4b" font-size="10pt" font-family="noto_regular"  y="31"></text></g></g><g id="2hpUiKyuO3g"><g transform="translate(870 1070)"><ellipse cx="60" cy="30" rx="60" ry="30" fill="rgb(36,175,175)" stroke="#24afaf" stroke-width="2" stroke-linecap="round" stroke-linejoin="round"/></g><g transform="translate(882.96, 1081.995) rotate(0, 47.04, 18.005)" width="94.08" height="36.01"><text text-decoration="none" x="5.039999999999999" fill="#ffffff" font-size="10pt" font-family="noto_regular"  y="12">Maintain&#160;</text><text text-decoration="none" x="57.04" fill="#ffffff" font-size="10pt" font-family="noto_regular"  y="12">Book&#160;</text><text text-decoration="none" x="89.03999999999999" fill="#ffffff" font-size="10pt" font-family="noto_regular"  y="12"></text><text text-decoration="none" x="23.54" fill="#ffffff" font-size="10pt" font-family="noto_regular"  y="31">Records</text><text text-decoration="none" x="70.53999999999999" fill="#4b4b4b" font-size="10pt" font-family="noto_regular"  y="31"></text></g></g><g id="hQFpfTesbpn"><g transform="translate(1090 950)"><ellipse cx="60" cy="30" rx="60" ry="30" fill="rgb(36,175,175)" stroke="#24afaf" stroke-width="2" stroke-linecap="round" stroke-linejoin="round"/></g><g transform="translate(1119.835, 971) rotate(0, 30.165, 9)" width="60.33" height="18"><text text-decoration="none" x="3.164999999999999" fill="#ffffff" font-size="10pt" font-family="noto_regular"  y="15">Add&#160;</text><text text-decoration="none" x="28.165" fill="#ffffff" font-size="10pt" font-family="noto_regular"  y="15">Book</text><text text-decoration="none" x="57.165" fill="#4b4b4b" font-size="10pt" font-family="noto_regular"  y="15"></text></g></g><g id="BA4jdTrbtwD"><g transform="translate(1129.9999999999998 1070)"><ellipse cx="60" cy="30" rx="60" ry="30" fill="rgb(36,175,175)" stroke="#24afaf" stroke-width="2" stroke-linecap="round" stroke-linejoin="round"/></g><g transform="translate(1146.9799999999998, 1091) rotate(0, 43.02, 9)" width="86.04" height="18"><text text-decoration="none" x="4.020000000000003" fill="#ffffff" font-size="10pt" font-family="noto_regular"  y="15">Remove&#160;</text><text text-decoration="none" x="53.02" fill="#ffffff" font-size="10pt" font-family="noto_regular"  y="15">Book</text><text text-decoration="none" x="82.02000000000001" fill="#4b4b4b" font-size="10pt" font-family="noto_regular"  y="15"></text></g></g><g id="sjQmXuRlo8O"><g transform="translate(1099.9999999999998 1200)"><ellipse cx="60" cy="30" rx="60" ry="30" fill="rgb(36,175,175)" stroke="#24afaf" stroke-width="2" stroke-linecap="round" stroke-linejoin="round"/></g><g transform="translate(1119.3249999999998, 1221) rotate(0, 40.675, 9)" width="81.35" height="18"><text text-decoration="none" x="4.674999999999997" fill="#ffffff" font-size="10pt" font-family="noto_regular"  y="15">Update&#160;</text><text text-decoration="none" x="47.675" fill="#ffffff" font-size="10pt" font-family="noto_regular"  y="15">Book</text><text text-decoration="none" x="76.675" fill="#4b4b4b" font-size="10pt" font-family="noto_regular"  y="15"></text></g></g><g id="kEuC1QLQeRr"><g><path d="M 505,1114 L 650,1060" fill="none" stroke="#7C7B7A" stroke-width="2" stroke-linecap="round" stroke-linejoin="round"/><path d="M 650,1060 L 639.8443624194965,1057.6463024699115 L 643.8578364469257,1068.4232234694898 Z" fill="rgb(124,123,122)" stroke="#7C7B7A" stroke-width="2" stroke-linecap="round" stroke-linejoin="round"/></g></g><g id="hUskfN6RBka"><g><path d="M 505,1146 L 650,1150" fill="none" stroke="#7E7E7E" stroke-width="2" stroke-linecap="round" stroke-linejoin="round"/><path d="M 650,1150 L 641.4662149983368,1144.0123977858357 L 641.1490942603311,1155.5080245385413 Z" fill="rgb(126,126,126)" stroke="#7E7E7E" stroke-width="2" stroke-linecap="round" stroke-linejoin="round"/></g></g><g id="zYoIQ1I26kx"><g><path d="M 504,1154 L 656,1217" fill="none" stroke="#7C7B7A" stroke-width="2" stroke-linecap="round" stroke-linejoin="round"/><path d="M 656,1217 L 650.1701021698318,1208.3577110659571 L 645.7650533881514,1218.9805894532408 Z" fill="rgb(124,123,122)" stroke="#7C7B7A" stroke-width="2" stroke-linecap="round" stroke-linejoin="round"/></g></g><g id="CBFf1M720nB"><g><path d="M 505,1178 L 646,1297" fill="none" stroke="#7E7E7E" stroke-width="2" stroke-linecap="round" stroke-linejoin="round"/><path d="M 646,1297 L 643.0658790074964,1286.9966105378712 L 635.6464509374067,1295.783082361804 Z" fill="rgb(126,126,126)" stroke="#7E7E7E" stroke-width="2" stroke-linecap="round" stroke-linejoin="round"/></g></g><g id="1bG3r4wrxst"><g><path d="M 505,1098 L 650,960" fill="none" stroke="#7E7E7E" stroke-width="2" stroke-linecap="round" stroke-linejoin="round"/><path d="M 650,960 L 639.737000197177,961.8296725873595 L 647.6651651013123,970.1599907837334 Z" fill="rgb(126,126,126)" stroke="#7E7E7E" stroke-width="2" stroke-linecap="round" stroke-linejoin="round"/></g></g><g id="wb9ilmcxux0"><g><path d="M 510,1121 L 870,1100" fill="none" stroke="#7C7B7A" stroke-width="2" stroke-linecap="round" stroke-linejoin="round"/><path d="M 870,1100 L 860.9842574167869,1094.7661436394455 L 861.6539523063216,1106.24662746004 Z" fill="rgb(124,123,122)" stroke="#7C7B7A" stroke-width="2" stroke-linecap="round" stroke-linejoin="round"/></g></g><g id="7QmQcDEdL8y"><g><path d="M 515,648 L 630,560" fill="none" stroke="#7E7E7E" stroke-width="2" stroke-linecap="round" stroke-linejoin="round"/><path d="M 630,560 L 619.599933601829,560.7179732887183 L 626.5885572372533,569.8508337213751 Z" fill="rgb(126,126,126)" stroke="#7E7E7E" stroke-width="2" stroke-linecap="round" stroke-linejoin="round"/></g></g><g id="45Ag2p1F2bQ"><g><path d="M 515,696 L 640,720" fill="none" stroke="#7C7B7A" stroke-width="2" stroke-linecap="round" stroke-linejoin="round"/><path d="M 640,720 L 632.5445235307149,712.713523667395 L 630.3761296597801,724.0072417451801 Z" fill="rgb(124,123,122)" stroke="#7C7B7A" stroke-width="2" stroke-linecap="round" stroke-linejoin="round"/></g></g><g id="fgcW8NFYLNR"><g><path d="M 515,728 L 646,797" fill="none" stroke="#7C7B7A" stroke-width="2" stroke-linecap="round" stroke-linejoin="round"/><path d="M 646,797 L 640.9881063079396,787.8590050678735 L 635.6264498638452,798.0326297992807 Z" fill="rgb(124,123,122)" stroke="#7C7B7A" stroke-width="2" stroke-linecap="round" stroke-linejoin="round"/></g></g><g id="JC5A8fFMZmY"><g><path d="M 510,679 L 640,640" fill="none" stroke="#7C7B7A" stroke-width="2" stroke-linecap="round" stroke-linejoin="round"/><path d="M 640,640 L 630.0311082000246,636.9507274621538 L 633.2909161715771,647.9790388464322 Z" fill="rgb(124,123,122)" stroke="#7C7B7A" stroke-width="2" stroke-linecap="round" stroke-linejoin="round"/></g></g><g id="3zFmnyyv3Vx"><mask id="e2513" x="746" y="696" width="168" height="34" maskUnits="userSpaceOnUse"><rect x="746" y="696" width="168" height="34" fill="white" /><rect x="790.645" y="701" width="78.71" height="24" fill="black" /></mask><g mask="url(#e2513)"><path d="M 760,716 L 900,710" fill="none" stroke="#7C7B7A" stroke-width="2" stroke-linecap="round" stroke-linejoin="round" stroke-dasharray="3 3"/><path d="M 760,716 L 767.2062091354352,722.2190858990168 M 760,716 L 766.6961102860992,709.23475155228 Z" fill="rgb(255,255,255)" stroke="#7C7B7A" stroke-width="2" stroke-linecap="round" stroke-linejoin="round"/></g><g transform="translate(793.645, 704)" width="72.71" height="18"><text text-decoration="none" x="3.354999999999997" fill="rgb(84, 84, 84)" font-size="10pt" font-family="noto_regular"  y="15">&#x3C;&#x3C;extend&#x3E;&#x3E;</text><text text-decoration="none" x="69.35499999999999" fill="#4b4b4b" font-size="10pt" font-family="noto_regular"  y="15"></text></g></g><g id="YJ1HrVZkubh"><g transform="translate(860 1270)"><ellipse cx="60" cy="30" rx="60" ry="30" fill="rgb(36,175,175)" stroke="#24afaf" stroke-width="2" stroke-linecap="round" stroke-linejoin="round"/></g><g transform="translate(880.445, 1281.995) rotate(0, 39.555, 18.005)" width="79.11" height="36.01"><text text-decoration="none" x="4.055" fill="#ffffff" font-size="10pt" font-family="noto_regular"  y="12">Charge&#160;</text><text text-decoration="none" x="47.055" fill="#ffffff" font-size="10pt" font-family="noto_regular"  y="12">Late&#160;</text><text text-decoration="none" x="75.055" fill="#ffffff" font-size="10pt" font-family="noto_regular"  y="12"></text><text text-decoration="none" x="7.555" fill="#ffffff" font-size="10pt" font-family="noto_regular"  y="31">Return&#160;</text><text text-decoration="none" x="47.555" fill="#ffffff" font-size="10pt" font-family="noto_regular"  y="31">Fine</text><text text-decoration="none" x="71.555" fill="#4b4b4b" font-size="10pt" font-family="noto_regular"  y="31"></text></g></g><g id="5wl07ZPrHem"><mask id="97933" x="750" y="1229" width="130" height="72" maskUnits="userSpaceOnUse"><rect x="750" y="1229" width="130" height="72" fill="white" /><rect x="775.645" y="1253" width="78.71" height="24" fill="black" /></mask><g mask="url(#97933)"><path d="M 764,1243 L 866,1287" fill="none" stroke="#7C7B7A" stroke-width="2" stroke-linecap="round" stroke-linejoin="round" stroke-dasharray="3 3"/><path d="M 764,1243 L 767.8094730128884,1251.7232101251234 M 764,1243 L 772.9627251008981,1239.7943739630593 Z" fill="rgb(255,255,255)" stroke="#7C7B7A" stroke-width="2" stroke-linecap="round" stroke-linejoin="round"/></g><g transform="translate(778.645, 1256)" width="72.71" height="18"><text text-decoration="none" x="3.354999999999997" fill="rgb(84, 84, 84)" font-size="10pt" font-family="noto_regular"  y="15">&#x3C;&#x3C;extend&#x3E;&#x3E;</text><text text-decoration="none" x="69.35499999999999" fill="#4b4b4b" font-size="10pt" font-family="noto_regular"  y="15"></text></g></g><g id="ieWrvv8hbrW"><mask id="bab3d" x="970" y="966" width="134" height="135" maskUnits="userSpaceOnUse"><rect x="970" y="966" width="134" height="135" fill="white" /><rect x="996.575" y="1021.5" width="80.85" height="24" fill="black" /></mask><g mask="url(#bab3d)"><path d="M 984,1087 L 1090,980" fill="none" stroke="#7C7B7A" stroke-width="2" stroke-linecap="round" stroke-linejoin="round" stroke-dasharray="3 3"/><path d="M 1090,980 L 1080.4885590680744,980.3727880382603 M 1090,980 L 1089.7231821136418,989.5147176196024 Z" fill="rgb(255,255,255)" stroke="#7C7B7A" stroke-width="2" stroke-linecap="round" stroke-linejoin="round"/></g><g transform="translate(999.575, 1024.5)" width="74.85" height="18"><text text-decoration="none" x="2.924999999999997" fill="rgb(84, 84, 84)" font-size="10pt" font-family="noto_regular"  y="15">&#x3C;&#x3C;include&#x3E;&#x3E;</text><text text-decoration="none" x="71.925" fill="#4b4b4b" font-size="10pt" font-family="noto_regular"  y="15"></text></g></g><g id="3UB7TtCFJs0"><mask id="6e9c0" x="976" y="1086" width="168" height="28" maskUnits="userSpaceOnUse"><rect x="976" y="1086" width="168" height="28" fill="white" /><rect x="1019.575" y="1088" width="80.85" height="24" fill="black" /></mask><g mask="url(#6e9c0)"><path d="M 990,1100 L 1130,1100" fill="none" stroke="#7C7B7A" stroke-width="2" stroke-linecap="round" stroke-linejoin="round" stroke-dasharray="3 3"/><path d="M 1130,1100 L 1123.0434782608695,1093.502824858757 M 1130,1100 L 1123.0434782608695,1106.497175141243 Z" fill="rgb(255,255,255)" stroke="#7C7B7A" stroke-width="2" stroke-linecap="round" stroke-linejoin="round"/></g><g transform="translate(1022.575, 1091)" width="74.85" height="18"><text text-decoration="none" x="2.924999999999997" fill="rgb(84, 84, 84)" font-size="10pt" font-family="noto_regular"  y="15">&#x3C;&#x3C;include&#x3E;&#x3E;</text><text text-decoration="none" x="71.925" fill="#4b4b4b" font-size="10pt" font-family="noto_regular"  y="15"></text></g></g><g id="VyauwzDS5iu"><mask id="ffeb4" x="970" y="1099" width="150" height="132" maskUnits="userSpaceOnUse"><rect x="970" y="1099" width="150" height="132" fill="white" /><rect x="1004.575" y="1153" width="80.85" height="24" fill="black" /></mask><g mask="url(#ffeb4)"><path d="M 984,1113 L 1106,1217" fill="none" stroke="#7C7B7A" stroke-width="2" stroke-linecap="round" stroke-linejoin="round" stroke-dasharray="3 3"/><path d="M 1106,1217 L 1104.9265916259735,1207.5419730394997 M 1106,1217 L 1096.490785420109,1217.4258140398924 Z" fill="rgb(255,255,255)" stroke="#7C7B7A" stroke-width="2" stroke-linecap="round" stroke-linejoin="round"/></g><g transform="translate(1007.575, 1156)" width="74.85" height="18"><text text-decoration="none" x="2.924999999999997" fill="rgb(84, 84, 84)" font-size="10pt" font-family="noto_regular"  y="15">&#x3C;&#x3C;include&#x3E;&#x3E;</text><text text-decoration="none" x="71.925" fill="#4b4b4b" font-size="10pt" font-family="noto_regular"  y="15"></text></g></g></svg>